<svg width="40" height="40" viewBox="0 0 40 40" fill="none" xmlns="http://www.w3.org/2000/svg">
<rect width="40" height="40" fill="white" fill-opacity="0.01"/>
<path fill-rule="evenodd" clip-rule="evenodd" d="M13.0303 11.9697C12.7374 11.6768 12.2626 11.6768 11.9697 11.9697C11.6768 12.2626 11.6768 12.7374 11.9697 13.0303L17 18.0607V20C17 21.6569 18.3431 23 20 23C20.556 23 21.0773 22.8483 21.5239 22.5845L22.6074 23.6681C21.8718 24.1919 20.9719 24.5 20 24.5C17.5147 24.5 15.5 22.4853 15.5 20V18.5C15.5 18.0858 15.1642 17.75 14.75 17.75C14.3358 17.75 14 18.0858 14 18.5V20C14 23.0597 16.2903 25.5845 19.25 25.9536V26.75H17C16.5858 26.75 16.25 27.0858 16.25 27.5C16.25 27.9142 16.5858 28.25 17 28.25H23C23.4142 28.25 23.75 27.9142 23.75 27.5C23.75 27.0858 23.4142 26.75 23 26.75H20.75V25.9536C21.8455 25.817 22.8493 25.385 23.6792 24.7399L26.9697 28.0303C27.2626 28.3232 27.7374 28.3232 28.0303 28.0303C28.3232 27.7374 28.3232 27.2626 28.0303 26.9697L24.7399 23.6792C25.5297 22.6632 26 21.3865 26 20V18.5C26 18.0858 25.6642 17.75 25.25 17.75C24.8358 17.75 24.5 18.0858 24.5 18.5V20C24.5 20.9719 24.1919 21.8718 23.6681 22.6074L20.116 19.0552C17.7542 16.6932 15.3924 14.3313 13.0303 11.9697Z" fill="white" fill-opacity="0.6863"/>
<path d="M23 19.818V14.75C23 13.0931 21.6569 11.75 20 11.75C18.627 11.75 17.4695 12.6723 17.1131 13.9311L23 19.818Z" fill="white" fill-opacity="0.6863"/>
<path d="M0 9C0 4.02944 4.02944 0 9 0H31C35.9706 0 40 4.02944 40 9V31C40 35.9706 35.9706 40 31 40H9C4.02944 40 0 35.9706 0 31V9Z" fill="white" fill-opacity="0.0706"/>
</svg>
