<svg width="18" height="18" viewBox="0 0 18 18" fill="none" xmlns="http://www.w3.org/2000/svg">
<path d="M12.181 1.5H5.81903C5.2153 1.49999 4.71703 1.49998 4.31113 1.53315C3.88956 1.56759 3.50203 1.64151 3.13803 1.82698C2.57354 2.1146 2.1146 2.57354 1.82698 3.13803C1.64151 3.50203 1.56759 3.88956 1.53315 4.31113C1.49998 4.71703 1.49999 5.21529 1.5 5.81901V12.181C1.49999 12.7847 1.49998 13.283 1.53315 13.6889C1.56759 14.1104 1.64151 14.498 1.82698 14.862C2.1146 15.4265 2.57354 15.8854 3.13803 16.173C3.50203 16.3585 3.88956 16.4324 4.31113 16.4669C4.71702 16.5 5.21529 16.5 5.81901 16.5H12.181C12.7847 16.5 13.283 16.5 13.6889 16.4669C14.1104 16.4324 14.498 16.3585 14.862 16.173C15.4265 15.8854 15.8854 15.4265 16.173 14.862C16.3585 14.498 16.4324 14.1104 16.4669 13.6889C16.5 13.283 16.5 12.7847 16.5 12.181V5.81901C16.5 5.21529 16.5 4.71702 16.4669 4.31113C16.4324 3.88956 16.3585 3.50203 16.173 3.13803C15.8854 2.57354 15.4265 2.1146 14.862 1.82698C14.498 1.64151 14.1104 1.56759 13.6889 1.53315C13.283 1.49998 12.7847 1.49999 12.181 1.5Z" fill="white"/>
</svg>
